<?xml version="1.0" encoding="utf-8"?>
<!-- Generator: Adobe Illustrator 16.0.2, SVG Export Plug-In . SVG Version: 6.00 Build 0)  -->
<!DOCTYPE svg PUBLIC "-//W3C//DTD SVG 1.1//EN" "http://www.w3.org/Graphics/SVG/1.1/DTD/svg11.dtd">
<svg version="1.1" id="Capa_1" xmlns="http://www.w3.org/2000/svg" xmlns:xlink="http://www.w3.org/1999/xlink" x="0px" y="0px"
	 width="537.793px" height="537.795px" viewBox="0 0 537.793 537.795" enable-background="new 0 0 537.793 537.795"
	 xml:space="preserve">
<g>
	<path fill="#FFFFFF" d="M463.09,466.114H74.854c-11.857,0-21.497,9.716-21.497,21.497v28.688c0,11.857,9.716,21.496,21.497,21.496
		h388.084c11.857,0,21.496-9.716,21.496-21.496v-28.688C484.665,475.677,474.95,466.114,463.09,466.114z"/>
	<path fill="#FFFFFF" d="M253.94,427.635c4.208,4.208,9.716,6.351,15.147,6.351c5.508,0,11.016-2.143,15.147-6.351l147.032-147.032
		c8.34-8.338,8.34-21.956,0-30.448l-20.348-20.349c-8.34-8.339-21.957-8.339-30.447,0l-75.582,75.659V21.497
		C304.889,9.639,295.172,0,283.393,0h-28.688c-11.857,0-21.497,9.562-21.497,21.497v284.044l-75.658-75.659
		c-8.339-8.338-22.032-8.338-30.447,0l-20.349,20.349c-8.338,8.338-8.338,22.032,0,30.448L253.94,427.635z"/>
</g>
</svg>
