<?xml version="1.0" encoding="utf-8"?>
<!-- Generator: Adobe Illustrator 16.0.2, SVG Export Plug-In . SVG Version: 6.00 Build 0)  -->
<!DOCTYPE svg PUBLIC "-//W3C//DTD SVG 1.1//EN" "http://www.w3.org/Graphics/SVG/1.1/DTD/svg11.dtd">
<svg version="1.1" id="Capa_1" xmlns="http://www.w3.org/2000/svg" xmlns:xlink="http://www.w3.org/1999/xlink" x="0px" y="0px"
	 width="571.2px" height="571.2px" viewBox="0 0 571.2 571.2" enable-background="new 0 0 571.2 571.2" xml:space="preserve">
<g>
	<path fill="#FFFFFF" d="M353.6,496.401c0,7.506-6.092,13.6-13.6,13.6H231.2c-7.507,0-13.6-6.094-13.6-13.6
		c0-7.51,6.093-13.602,13.6-13.602H340C347.508,482.799,353.6,488.893,353.6,496.401z M340,516.799H231.2
		c-8.949,0-15.878,8.645-12.899,18.035c1.795,5.664,7.527,9.166,13.471,9.166h0.204c7.854,0,15.035,4.439,18.55,11.465l0.143,0.285
		c4.74,9.465,14.416,15.449,25.004,15.449h19.856c10.589,0,20.265-5.984,24.997-15.449l0.143-0.285
		c3.516-7.023,10.697-11.465,18.551-11.465h0.203c5.943,0,11.676-3.502,13.471-9.166C355.877,525.444,348.95,516.799,340,516.799z
		 M285.601,81.6c7.507,0,13.601-6.093,13.601-13.6V13.6c0-7.507-6.094-13.6-13.601-13.6C278.093,0,272,6.093,272,13.6V68
		C272,75.507,278.093,81.6,285.601,81.6z M141.352,133.382c2.652,2.659,6.134,3.985,9.615,3.985c3.482,0,6.963-1.326,9.615-3.985
		c5.311-5.311,5.311-13.92,0-19.23l-38.467-38.468c-5.304-5.311-13.927-5.311-19.23,0c-5.311,5.311-5.311,13.919,0,19.23
		L141.352,133.382z M108.8,258.4c0-7.507-6.093-13.6-13.6-13.6H40.8c-7.507,0-13.6,6.093-13.6,13.6c0,7.507,6.093,13.6,13.6,13.6
		h54.4C102.708,272,108.8,265.907,108.8,258.4z M141.352,383.418l-38.467,38.467c-5.311,5.313-5.311,13.92,0,19.23
		c2.652,2.66,6.133,3.984,9.615,3.984c3.481,0,6.963-1.324,9.615-3.984l38.467-38.467c5.311-5.313,5.311-13.92,0-19.23
		C155.278,378.107,146.656,378.107,141.352,383.418z M429.848,383.418c-5.311-5.312-13.92-5.312-19.229,0
		c-5.311,5.311-5.313,13.92,0,19.23l38.467,38.467c2.658,2.66,6.135,3.984,9.615,3.984s6.957-1.324,9.615-3.984
		c5.311-5.311,5.311-13.92,0-19.23L429.848,383.418z M530.401,244.8H476c-7.508,0-13.6,6.093-13.6,13.6
		c0,7.507,6.092,13.6,13.6,13.6h54.4c7.506,0,13.6-6.093,13.6-13.6C544,250.893,537.907,244.8,530.401,244.8z M420.233,137.367
		c3.48,0,6.957-1.326,9.615-3.985l38.469-38.468c5.311-5.311,5.311-13.919,0-19.23c-5.313-5.311-13.922-5.311-19.23,0
		l-38.469,38.468c-5.311,5.311-5.311,13.919,0,19.23C413.272,136.041,416.752,137.367,420.233,137.367z M353.6,462.401
		c0,7.506-6.092,13.6-13.6,13.6H231.2c-7.507,0-13.6-6.094-13.6-13.6c0-7.242,5.678-13.111,12.818-13.52
		C221.952,372.354,142.8,355.307,142.8,265.2c0-78.866,63.934-142.8,142.8-142.8c78.865,0,142.801,63.934,142.801,142.8
		c0,90.106-79.152,107.154-87.619,183.681C347.922,449.29,353.6,455.159,353.6,462.401z M254.259,160.548
		c-2.115-5.216-8.051-7.725-13.287-5.624c-34.755,14.083-61.104,44.186-70.482,80.525c-1.408,5.46,1.877,11.016,7.331,12.424
		c0.85,0.224,1.707,0.326,2.55,0.326c4.542,0,8.684-3.053,9.874-7.65c7.766-30.11,29.594-55.053,58.385-66.715
		C253.851,171.721,256.367,165.777,254.259,160.548z"/>
</g>
</svg>
